<svg width="146" height="43" viewBox="0 0 146 43" fill="none" xmlns="http://www.w3.org/2000/svg">
<path d="M140.091 42.4926H5.70857C2.75349 42.4926 0.333252 40.1296 0.333252 37.2445V5.75561C0.333252 2.87044 2.75349 0.507465 5.70857 0.507465H140.091C143.046 0.507465 145.467 2.87044 145.467 5.75561V37.2445C145.467 40.1296 143.046 42.4926 140.091 42.4926Z" fill="black"/>
<path d="M140.091 1.34848C142.58 1.34848 144.605 3.32572 144.605 5.75561V37.2445C144.605 39.6744 142.58 41.6516 140.091 41.6516H5.70857C3.2198 41.6516 1.19465 39.6744 1.19465 37.2445V5.75561C1.19465 3.32572 3.2198 1.34848 5.70857 1.34848H140.091ZM140.091 0.507465H5.70857C2.75349 0.507465 0.333252 2.87044 0.333252 5.75561V37.2445C0.333252 40.1296 2.75349 42.4926 5.70857 42.4926H140.091C143.046 42.4926 145.467 40.1296 145.467 37.2445V5.75561C145.467 2.87044 143.046 0.507465 140.091 0.507465Z" fill="#A6A6A6"/>
<path d="M51.31 11.2596C51.31 12.1361 51.0413 12.838 50.5118 13.3615C49.9031 13.9821 49.1102 14.2944 48.1386 14.2944C47.21 14.2944 46.4172 13.9769 45.7668 13.351C45.115 12.716 44.7898 11.9366 44.7898 11.0038C44.7898 10.0709 45.115 9.29158 45.7668 8.6618C46.4172 8.03071 47.21 7.7132 48.1386 7.7132C48.6009 7.7132 49.0417 7.80635 49.4623 7.97954C49.8816 8.15404 50.2229 8.39021 50.4702 8.68148L49.9084 9.23516C49.4771 8.7379 48.8898 8.49255 48.1386 8.49255C47.4613 8.49255 46.8741 8.72346 46.3755 9.18924C45.8823 9.65632 45.6351 10.2612 45.6351 11.0038C45.6351 11.7464 45.8823 12.3565 46.3755 12.8236C46.8741 13.2841 47.4613 13.5203 48.1386 13.5203C48.8576 13.5203 49.4623 13.2841 49.9393 12.8183C50.2538 12.51 50.4325 12.0849 50.4796 11.5417H48.1386V10.7834H51.2617C51.2993 10.9474 51.31 11.1061 51.31 11.2596Z" fill="white" stroke="white" stroke-width="0.129185" stroke-miterlimit="10"/>
<path d="M56.2649 8.63064H53.3313V10.6249H55.9759V11.3833H53.3313V13.3776H56.2649V14.1504H52.5008V7.85785H56.2649V8.63064Z" fill="white" stroke="white" stroke-width="0.129185" stroke-miterlimit="10"/>
<path d="M59.7614 14.1504H58.9309V8.63064H57.1315V7.85785H61.5621V8.63064H59.7614V14.1504Z" fill="white" stroke="white" stroke-width="0.129185" stroke-miterlimit="10"/>
<path d="M64.7686 14.1504V7.85785H65.5978V14.1504H64.7686Z" fill="white" stroke="white" stroke-width="0.129185" stroke-miterlimit="10"/>
<path d="M69.2731 14.1504H68.4493V8.63064H66.6432V7.85785H71.0792V8.63064H69.2731V14.1504Z" fill="white" stroke="white" stroke-width="0.129185" stroke-miterlimit="10"/>
<path d="M79.4674 13.3405C78.8318 13.9769 78.0443 14.2944 77.105 14.2944C76.1603 14.2944 75.3728 13.9769 74.7372 13.3405C74.1029 12.7055 73.7871 11.9261 73.7871 11.0038C73.7871 10.0814 74.1029 9.30207 74.7372 8.66705C75.3728 8.03071 76.1603 7.7132 77.105 7.7132C78.039 7.7132 78.8264 8.03071 79.4621 8.67229C80.1017 9.31257 80.4175 10.0867 80.4175 11.0038C80.4175 11.9261 80.1017 12.7055 79.4674 13.3405ZM75.3513 12.8131C75.8297 13.2841 76.4116 13.5203 77.105 13.5203C77.793 13.5203 78.3803 13.2841 78.8533 12.8131C79.3304 12.3421 79.5723 11.7372 79.5723 11.0038C79.5723 10.2704 79.3304 9.66551 78.8533 9.19449C78.3803 8.72346 77.793 8.4873 77.105 8.4873C76.4116 8.4873 75.8297 8.72346 75.3513 9.19449C74.8742 9.66551 74.6323 10.2704 74.6323 11.0038C74.6323 11.7372 74.8742 12.3421 75.3513 12.8131Z" fill="white" stroke="white" stroke-width="0.129185" stroke-miterlimit="10"/>
<path d="M81.5826 14.1504V7.85785H82.5905L85.7243 12.7517H85.7605L85.7243 11.542V7.85785H86.5534V14.1504H85.688L82.4063 9.01506H82.3701L82.4063 10.23V14.1504H81.5826Z" fill="white" stroke="white" stroke-width="0.129185" stroke-miterlimit="10"/>
<path d="M73.5827 23.3391C71.0577 23.3391 68.9949 25.2154 68.9949 27.804C68.9949 30.3717 71.0577 32.2675 73.5827 32.2675C76.1132 32.2675 78.1759 30.3717 78.1759 27.804C78.1759 25.2154 76.1132 23.3391 73.5827 23.3391ZM73.5827 30.5094C72.1972 30.5094 71.0053 29.3929 71.0053 27.804C71.0053 26.1941 72.1972 25.0973 73.5827 25.0973C74.9682 25.0973 76.1656 26.1941 76.1656 27.804C76.1656 29.3929 74.9682 30.5094 73.5827 30.5094ZM63.5726 23.3391C61.0421 23.3391 58.9847 25.2154 58.9847 27.804C58.9847 30.3717 61.0421 32.2675 63.5726 32.2675C66.1016 32.2675 68.1604 30.3717 68.1604 27.804C68.1604 25.2154 66.1016 23.3391 63.5726 23.3391ZM63.5726 30.5094C62.1857 30.5094 60.9897 29.3929 60.9897 27.804C60.9897 26.1941 62.1857 25.0973 63.5726 25.0973C64.958 25.0973 66.15 26.1941 66.15 27.804C66.15 29.3929 64.958 30.5094 63.5726 30.5094ZM51.6609 24.7076V26.6048H56.3011C56.1654 27.6649 55.8025 28.4443 55.2462 28.9875C54.5689 29.6435 53.514 30.3717 51.6609 30.3717C48.8052 30.3717 46.5691 28.1215 46.5691 25.3334C46.5691 22.5454 48.8052 20.2952 51.6609 20.2952C53.2049 20.2952 54.3284 20.8843 55.1575 21.6479L56.5269 20.311C55.3671 19.2298 53.8244 18.3993 51.6609 18.3993C47.745 18.3993 44.4539 21.5102 44.4539 25.3334C44.4539 29.1567 47.745 32.2675 51.6609 32.2675C53.7774 32.2675 55.3671 31.5905 56.6169 30.3205C57.8976 29.0701 58.2967 27.312 58.2967 25.8924C58.2967 25.4515 58.2591 25.0461 58.1919 24.7076H51.6609ZM100.369 26.1784C99.9916 25.1799 98.8265 23.3391 96.4533 23.3391C94.1016 23.3391 92.1437 25.1484 92.1437 27.804C92.1437 30.3047 94.0815 32.2675 96.6791 32.2675C98.7795 32.2675 99.9916 31.0172 100.49 30.289L98.9314 29.2748C98.4113 30.0174 97.7031 30.5094 96.6791 30.5094C95.6618 30.5094 94.9321 30.0541 94.4645 29.1567L100.58 26.6861L100.369 26.1784ZM94.1339 27.6649C94.0815 25.9435 95.5033 25.0618 96.5219 25.0618C97.3201 25.0618 97.9974 25.4515 98.2232 26.0091L94.1339 27.6649ZM89.1631 31.996H91.1734V18.8756H89.1631V31.996ZM85.8707 24.3337H85.8035C85.352 23.8115 84.4906 23.3391 83.3994 23.3391C81.1095 23.3391 79.0158 25.302 79.0158 27.8184C79.0158 30.3205 81.1095 32.2675 83.3994 32.2675C84.4906 32.2675 85.352 31.7913 85.8035 31.2533H85.8707V31.8936C85.8707 33.6006 84.9367 34.5177 83.4303 34.5177C82.202 34.5177 81.4401 33.6517 81.1256 32.9236L79.3773 33.636C79.8813 34.8195 81.2157 36.2758 83.4303 36.2758C85.7874 36.2758 87.7762 34.9218 87.7762 31.6273V23.6107H85.8707V24.3337ZM83.5714 30.5094C82.1859 30.5094 81.0262 29.3771 81.0262 27.8184C81.0262 26.2453 82.1859 25.0973 83.5714 25.0973C84.9367 25.0973 86.0131 26.2453 86.0131 27.8184C86.0131 29.3771 84.9367 30.5094 83.5714 30.5094ZM109.781 18.8756H104.973V31.996H106.978V27.0247H109.781C112.008 27.0247 114.192 25.4515 114.192 22.9495C114.192 20.4487 112.003 18.8756 109.781 18.8756ZM109.834 25.1996H106.978V20.7006H109.834C111.331 20.7006 112.186 21.9143 112.186 22.9495C112.186 23.965 111.331 25.1996 109.834 25.1996ZM122.228 23.3142C120.779 23.3142 119.273 23.9387 118.653 25.3229L120.433 26.0511C120.816 25.3229 121.52 25.0868 122.264 25.0868C123.304 25.0868 124.359 25.6969 124.375 26.7741V26.9118C124.013 26.7071 123.236 26.4041 122.28 26.4041C120.364 26.4041 118.411 27.434 118.411 29.3561C118.411 31.1143 119.981 32.2466 121.746 32.2466C123.095 32.2466 123.839 31.6522 124.307 30.9608H124.375V31.975H126.312V26.942C126.312 24.6158 124.533 23.3142 122.228 23.3142ZM121.986 30.5042C121.33 30.5042 120.416 30.1867 120.416 29.3929C120.416 28.3774 121.556 27.9877 122.542 27.9877C123.425 27.9877 123.839 28.1779 124.375 28.4285C124.218 29.6435 123.147 30.5042 121.986 30.5042ZM133.367 23.6016L131.062 29.2892H130.994L128.611 23.6016H126.449L130.029 31.5499L127.986 35.9727H130.081L135.598 23.6016H133.367ZM115.294 31.996H117.304V18.8756H115.294V31.996Z" fill="white"/>
<path d="M11.5515 8.42041C11.2357 8.74317 11.053 9.24568 11.053 9.89645V33.109C11.053 33.7598 11.2357 34.2623 11.5515 34.585L11.6295 34.6559L24.9522 21.6536V21.3466L11.6295 8.34431L11.5515 8.42041Z" fill="url(#paint0_linear_1_315)"/>
<path d="M29.3883 25.9898L24.9524 21.6535V21.3465L29.3937 17.0102L29.4932 17.0667L34.7529 19.9886C36.254 20.8178 36.254 22.1823 34.7529 23.0167L29.4932 25.9334L29.3883 25.9898Z" fill="url(#paint1_linear_1_315)"/>
<path d="M29.4931 25.9338L24.9524 21.5005L11.5517 34.5854C12.0503 35.0971 12.8633 35.1588 13.7878 34.6471L29.4931 25.9338Z" fill="url(#paint2_linear_1_315)"/>
<path d="M29.4931 17.0671L13.7878 8.35383C12.8633 7.84738 12.0503 7.90905 11.5517 8.42074L24.9524 21.5004L29.4931 17.0671Z" fill="url(#paint3_linear_1_315)"/>
<defs>
<linearGradient id="paint0_linear_1_315" x1="23.7693" y1="33.3507" x2="6.15905" y2="15.3138" gradientUnits="userSpaceOnUse">
<stop stop-color="#00A0FF"/>
<stop offset="0.0066" stop-color="#00A1FF"/>
<stop offset="0.2601" stop-color="#00BEFF"/>
<stop offset="0.5122" stop-color="#00D2FF"/>
<stop offset="0.7604" stop-color="#00DFFF"/>
<stop offset="1" stop-color="#00E3FF"/>
</linearGradient>
<linearGradient id="paint1_linear_1_315" x1="36.7075" y1="21.4986" x2="10.6943" y2="21.4986" gradientUnits="userSpaceOnUse">
<stop stop-color="#FFE000"/>
<stop offset="0.4087" stop-color="#FFBD00"/>
<stop offset="0.7754" stop-color="#FFA500"/>
<stop offset="1" stop-color="#FF9C00"/>
</linearGradient>
<linearGradient id="paint2_linear_1_315" x1="27.024" y1="19.0904" x2="3.14308" y2="-5.36916" gradientUnits="userSpaceOnUse">
<stop stop-color="#FF3A44"/>
<stop offset="1" stop-color="#C31162"/>
</linearGradient>
<linearGradient id="paint3_linear_1_315" x1="8.17847" y1="42.3081" x2="18.8424" y2="31.3859" gradientUnits="userSpaceOnUse">
<stop stop-color="#32A071"/>
<stop offset="0.0685" stop-color="#2DA771"/>
<stop offset="0.4762" stop-color="#15CF74"/>
<stop offset="0.8009" stop-color="#06E775"/>
<stop offset="1" stop-color="#00F076"/>
</linearGradient>
</defs>
</svg>
