<svg width="81" height="81" viewBox="0 0 81 81" fill="none" xmlns="http://www.w3.org/2000/svg">
<path d="M27.745 52.2214C39.4854 52.2214 49.0029 42.8472 49.0029 31.2835C49.0029 19.7199 39.4854 10.3457 27.745 10.3457C16.0046 10.3457 6.48718 19.7199 6.48718 31.2835C6.48718 42.8472 16.0046 52.2214 27.745 52.2214Z" fill="#25A75C" stroke="#22202D" stroke-width="1.52426"/>
<path d="M27.745 46.9566C36.5333 46.9566 43.6576 39.9397 43.6576 31.2839C43.6576 22.6282 36.5333 15.6113 27.745 15.6113C18.9567 15.6113 11.8324 22.6282 11.8324 31.2839C11.8324 39.9397 18.9567 46.9566 27.745 46.9566Z" fill="white" stroke="#22202D" stroke-width="1.52426"/>
<path d="M20.3838 31.2836H27.846V21.8768" stroke="#22202D" stroke-width="1.52426" stroke-linecap="round" stroke-linejoin="round"/>
<path d="M27.7449 15.7656V18.8425" stroke="#22202D" stroke-width="1.52426" stroke-linecap="round"/>
<path d="M27.7449 44.3184V47.0568" stroke="#22202D" stroke-width="1.52426" stroke-linecap="round"/>
<path d="M12.0995 31.4103H15.1764" stroke="#22202D" stroke-width="1.52426" stroke-linecap="round"/>
<path d="M40.6521 31.4103H43.3893" stroke="#22202D" stroke-width="1.52426" stroke-linecap="round"/>
<path d="M74.1795 46.0371H21.2564V74.3448H74.1795V46.0371Z" fill="#25A75C" stroke="#22202D" stroke-width="1.52426" stroke-linecap="round" stroke-linejoin="round"/>
<path d="M70.7149 66.1201V52.6825C69.6968 52.6825 68.7204 52.2781 68.0004 51.5582C67.2805 50.8383 66.8761 49.8619 66.8761 48.8438H28.4847C28.4847 49.8619 28.0803 50.8383 27.3604 51.5582C26.6404 52.2781 25.664 52.6825 24.6459 52.6825V66.1201C25.664 66.1201 26.6404 66.5245 27.3604 67.2444C28.0803 67.9643 28.4847 68.9407 28.4847 69.9588H66.8761C66.8761 68.9407 67.2805 67.9643 68.0004 67.2444C68.7204 66.5245 69.6968 66.1201 70.7149 66.1201Z" fill="#F7F7F7" stroke="#22202D" stroke-width="1.52426" stroke-linecap="round" stroke-linejoin="round"/>
<path d="M47.6798 69.9588C52.0525 69.9588 55.5973 65.2321 55.5973 59.4013C55.5973 53.5705 52.0525 48.8438 47.6798 48.8438C43.3071 48.8438 39.7623 53.5705 39.7623 59.4013C39.7623 65.2321 43.3071 69.9588 47.6798 69.9588Z" fill="#25A75C" stroke="#22202D" stroke-width="1.52426"/>
<path d="M62.4871 60.8056C63.5067 60.8056 64.3333 59.979 64.3333 58.9594C64.3333 57.9398 63.5067 57.1133 62.4871 57.1133C61.4675 57.1133 60.641 57.9398 60.641 58.9594C60.641 59.979 61.4675 60.8056 62.4871 60.8056Z" fill="#25A75C" stroke="#22202D" stroke-width="1.52426"/>
<path d="M32.9487 60.8056C33.9683 60.8056 34.7948 59.979 34.7948 58.9594C34.7948 57.9398 33.9683 57.1133 32.9487 57.1133C31.9291 57.1133 31.1025 57.9398 31.1025 58.9594C31.1025 59.979 31.9291 60.8056 32.9487 60.8056Z" fill="#25A75C" stroke="#22202D" stroke-width="1.52426"/>
<path d="M53.4275 66.6476C52.4768 65.7487 51.3053 65.1173 50.0318 64.8174C49.923 64.7998 49.8245 64.743 49.7547 64.6578C49.6849 64.5726 49.6486 64.4648 49.6527 64.3547C49.6638 64.1085 49.6638 63.8427 49.6626 63.5682C49.6626 62.938 50.4207 62.1787 50.4626 61.295C50.6956 60.8464 50.8307 60.3535 50.8589 59.8488C50.8679 59.7493 50.8566 59.6491 50.8257 59.5541C50.7948 59.4591 50.745 59.3714 50.6792 59.2962C50.7407 58.9664 50.7936 58.618 50.8589 58.2599C51.0452 57.671 50.991 57.0323 50.708 56.4833C50.4251 55.9342 49.9364 55.5194 49.3487 55.3294C48.2654 55.1286 47.2282 54.7301 46.289 54.154C46.033 53.9079 46.209 55.3011 45.9764 55.4057C45.4083 55.5972 44.9367 56.0019 44.6612 56.5344C44.3857 57.0668 44.3277 57.6855 44.4995 58.2599C44.5635 58.618 44.6226 58.9664 44.6792 59.2962C44.6134 59.3714 44.5636 59.4591 44.5327 59.5541C44.5018 59.6491 44.4905 59.7493 44.4995 59.8488C44.5277 60.3535 44.6628 60.8464 44.8958 61.295C44.9376 62.1799 45.6958 62.895 45.6958 63.5682C45.6958 63.8427 45.6958 64.106 45.7056 64.3547C45.7098 64.4648 45.6735 64.5726 45.6037 64.6578C45.5339 64.743 45.4353 64.7998 45.3266 64.8174C44.0531 65.1173 42.8815 65.7487 41.9309 66.6476C42.5501 67.6228 43.3965 68.4334 44.3975 69.01C45.3985 69.5866 46.5243 69.912 47.6786 69.9584C48.8328 69.912 49.9587 69.5866 50.9597 69.01C51.9607 68.4334 52.807 67.6228 53.4263 66.6476H53.4275Z" fill="#F7F7F7" stroke="#22202D" stroke-width="1.52426" stroke-linecap="round" stroke-linejoin="round"/>
</svg>
