<svg width="24" height="25" viewBox="0 0 24 25" fill="none" xmlns="http://www.w3.org/2000/svg">
<path d="M2 12.56C2.00056 14.956 2.85047 17.2732 4.39696 19.0952C5.94345 20.9171 8.08511 22.1244 10.437 22.4999V15.4678H7.9V12.56H10.44V10.3464C10.3839 9.8283 10.4419 9.30414 10.6098 8.81114C10.7777 8.31814 11.0515 7.86839 11.4116 7.49384C11.7718 7.11928 12.2095 6.8291 12.6936 6.64392C13.1778 6.45873 13.6965 6.38308 14.213 6.42234C14.963 6.43441 15.713 6.50182 16.453 6.62357V9.09773H15.189C14.9742 9.06942 14.7558 9.09005 14.5499 9.15809C14.3441 9.22612 14.1561 9.33983 13.9998 9.49081C13.8435 9.64179 13.7229 9.82618 13.647 10.0303C13.571 10.2345 13.5416 10.4532 13.561 10.6704V12.56H16.332L15.889 15.4688H13.561V22.4999C15.4486 22.1997 17.2112 21.3616 18.6402 20.0848C20.0691 18.8081 21.1045 17.146 21.6238 15.2955C22.143 13.4451 22.1244 11.4836 21.5702 9.64341C21.0159 7.80323 19.9492 6.16137 18.4964 4.91223C17.0435 3.66308 15.2653 2.85897 13.3724 2.59508C11.4794 2.3312 9.55092 2.6186 7.81525 3.42326C6.07958 4.22792 4.60942 5.51613 3.5788 7.13539C2.54819 8.75464 2.0003 10.6371 2 12.56Z" fill="#979797"/>
</svg>
