<svg width="80" height="81" viewBox="0 0 80 81" fill="none" xmlns="http://www.w3.org/2000/svg">
<path d="M56.6154 6.6543H19.6923C17.6531 6.6543 16 8.3074 16 10.3466V70.6543C16 72.6935 17.6531 74.3466 19.6923 74.3466H56.6154C58.6546 74.3466 60.3077 72.6935 60.3077 70.6543V10.3466C60.3077 8.3074 58.6546 6.6543 56.6154 6.6543Z" fill="#25A75C"/>
<path d="M56.6154 7.26965H19.6923C17.9929 7.26965 16.6154 8.64724 16.6154 10.3466V70.6543C16.6154 72.3536 17.9929 73.7312 19.6923 73.7312H56.6154C58.3147 73.7312 59.6923 72.3536 59.6923 70.6543V10.3466C59.6923 8.64724 58.3147 7.26965 56.6154 7.26965Z" stroke="#22202D" stroke-width="1.52426"/>
<path d="M50.4615 12.8086H25.8461C23.8069 12.8086 22.1538 14.4617 22.1538 16.5009V59.5778C22.1538 61.617 23.8069 63.2701 25.8461 63.2701H50.4615C52.5007 63.2701 54.1538 61.617 54.1538 59.5778V16.5009C54.1538 14.4617 52.5007 12.8086 50.4615 12.8086Z" fill="#F7F7F7"/>
<path d="M50.4615 13.424H25.8461C24.1468 13.424 22.7692 14.8015 22.7692 16.5009V59.5778C22.7692 61.2771 24.1468 62.6547 25.8461 62.6547H50.4615C52.1608 62.6547 53.5384 61.2771 53.5384 59.5778V16.5009C53.5384 14.8015 52.1608 13.424 50.4615 13.424Z" stroke="#22202D" stroke-width="1.52426"/>
<path d="M32.9575 67.3906H43.3489" stroke="white" stroke-width="3.04851" stroke-linecap="round"/>
<path d="M53.9619 52.4411C52.3078 53.5636 44.4678 52.9556 45.5927 52.9125C46.4825 52.878 48.5342 51.1033 49.5201 50.2048C46.4899 47.9761 44.4079 44.69 43.6871 40.9982C42.9663 37.3064 43.6593 33.4785 45.6286 30.2737C47.5979 27.0689 50.6998 24.7212 54.319 23.6963C57.9381 22.6714 61.8104 23.0441 65.1676 24.7404C68.5249 26.4368 71.1221 29.333 72.444 32.8545C73.766 36.3761 73.7162 40.2659 72.3045 43.7525C70.8928 47.239 68.2224 50.0677 64.8227 51.6776C61.4231 53.2874 57.5426 53.5608 53.9509 52.4436L53.9619 52.4411Z" fill="white" stroke="#22202D" stroke-width="1.52426" stroke-linecap="round" stroke-linejoin="round"/>
</svg>
