<svg width="24" height="25" viewBox="0 0 24 25" fill="none" xmlns="http://www.w3.org/2000/svg">
<path d="M23.643 5.43659C22.808 5.80659 21.911 6.05659 20.968 6.16959C21.941 5.58738 22.669 4.67105 23.016 3.59159C22.1019 4.13458 21.1014 4.51678 20.058 4.72159C19.3564 3.97245 18.4271 3.47591 17.4143 3.30906C16.4016 3.14221 15.3621 3.31438 14.4572 3.79884C13.5524 4.2833 12.8328 5.05295 12.4102 5.98829C11.9875 6.92363 11.8855 7.97234 12.12 8.97159C10.2677 8.87858 8.45564 8.39714 6.80144 7.55849C5.14723 6.71985 3.68785 5.54275 2.51801 4.10359C2.11801 4.79359 1.88801 5.59359 1.88801 6.44559C1.88757 7.21258 2.07644 7.96783 2.43789 8.64432C2.79934 9.32081 3.32217 9.89763 3.96001 10.3236C3.22029 10.3001 2.49688 10.1002 1.85001 9.74059V9.80059C1.84994 10.8763 2.22204 11.919 2.90319 12.7516C3.58434 13.5842 4.53258 14.1555 5.58701 14.3686C4.9008 14.5543 4.18135 14.5817 3.48301 14.4486C3.78051 15.3742 4.36001 16.1836 5.14038 16.7635C5.92075 17.3434 6.86293 17.6648 7.83501 17.6826C6.18484 18.978 4.1469 19.6807 2.04901 19.6776C1.67739 19.6777 1.30609 19.656 0.937012 19.6126C3.06649 20.9818 5.54535 21.7084 8.07701 21.7056C16.647 21.7056 21.332 14.6076 21.332 8.45159C21.332 8.25159 21.327 8.04959 21.318 7.84959C22.2293 7.19056 23.0159 6.37448 23.641 5.43959L23.643 5.43659Z" fill="#979797"/>
</svg>
